<svg width="512" height="512" viewBox="0 0 512 512" fill="none" xmlns="http://www.w3.org/2000/svg">
<g clip-path="url(#clip0_135_38)">
<path d="M0 256C0 114.615 114.615 0 256 0V0C397.385 0 512 114.615 512 256V256C512 397.385 397.385 512 256 512V512C114.615 512 0 397.385 0 256V256Z" fill="black"/>
<path d="M194.792 254.072C199.656 254.84 204.072 256.824 208.04 260.024C212.136 263.224 215.336 267.192 217.64 271.928C220.072 276.664 221.288 281.72 221.288 287.096C221.288 293.88 219.56 300.024 216.104 305.528C212.648 310.904 207.592 315.192 200.936 318.392C194.408 321.464 186.664 323 177.704 323H127.784V189.176H175.784C184.872 189.176 192.616 190.712 199.016 193.784C205.416 196.728 210.216 200.76 213.416 205.88C216.616 211 218.216 216.76 218.216 223.16C218.216 231.096 216.04 237.688 211.688 242.936C207.464 248.056 201.832 251.768 194.792 254.072ZM145.256 246.968H174.632C182.824 246.968 189.16 245.048 193.64 241.208C198.12 237.368 200.36 232.056 200.36 225.272C200.36 218.488 198.12 213.176 193.64 209.336C189.16 205.496 182.696 203.576 174.248 203.576H145.256V246.968ZM176.168 308.6C184.872 308.6 191.656 306.552 196.52 302.456C201.384 298.36 203.816 292.664 203.816 285.368C203.816 277.944 201.256 272.12 196.136 267.896C191.016 263.544 184.168 261.368 175.592 261.368H145.256V308.6H176.168ZM394.526 189.176L344.03 323H323.87L273.374 189.176H291.998L334.046 304.568L376.094 189.176H394.526Z" fill="#D9E2EC"/>
</g>
<defs>
<clipPath id="clip0_135_38">
<rect width="512" height="512" fill="white"/>
</clipPath>
</defs>
</svg>
